<?xml version="1.0" encoding="UTF-8" standalone="no"?>
<!-- Created with Inkscape (http://www.inkscape.org/) -->

<svg
   xmlns:dc="http://purl.org/dc/elements/1.1/"
   xmlns:cc="http://creativecommons.org/ns#"
   xmlns:rdf="http://www.w3.org/1999/02/22-rdf-syntax-ns#"
   xmlns:svg="http://www.w3.org/2000/svg"
   xmlns="http://www.w3.org/2000/svg"
   xmlns:sodipodi="http://sodipodi.sourceforge.net/DTD/sodipodi-0.dtd"
   xmlns:inkscape="http://www.inkscape.org/namespaces/inkscape"
   version="1.1"
   width="744.09448"
   height="1052.3622"
   id="svg2"
   inkscape:version="0.48.5 r10040"
   sodipodi:docname="drawing.svg">
  <sodipodi:namedview
     pagecolor="#ffffff"
     bordercolor="#666666"
     borderopacity="1"
     objecttolerance="10"
     gridtolerance="10"
     guidetolerance="10"
     inkscape:pageopacity="0"
     inkscape:pageshadow="2"
     inkscape:window-width="1280"
     inkscape:window-height="751"
     id="namedview3037"
     showgrid="false"
     inkscape:zoom="5.0743655"
     inkscape:cx="226.38028"
     inkscape:cy="945.58822"
     inkscape:window-x="0"
     inkscape:window-y="0"
     inkscape:window-maximized="1"
     inkscape:current-layer="svg2" />
  <defs
     id="defs4" />
  <metadata
     id="metadata7">
    <rdf:RDF>
      <cc:Work
         rdf:about="">
        <dc:format>image/svg+xml</dc:format>
        <dc:type
           rdf:resource="http://purl.org/dc/dcmitype/StillImage" />
        <dc:title />
      </cc:Work>
    </rdf:RDF>
  </metadata>
  <g
     id="layer1"
     transform="matrix(0.65217391,0,0,0.65217391,-88.509314,-128.19221)">
    <rect
       width="460"
       height="620"
       ry="21.428572"
       x="135.71428"
       y="196.6479"
       id="rect3915"
       style="fill:#000000;fill-opacity:1" />
    <path
       d="m 456.91497,761.60529 c -10.37179,-2.31203 -19.45694,-8.31489 -25.87556,-17.09682 -9.62118,-13.16371 -14.70462,-29.1825 -19.93314,-62.81291 -1.01051,-6.49967 -1.89682,-11.88039 -1.96958,-11.95715 -0.0728,-0.0768 -2.06713,0.40864 -4.43194,1.07867 -6.88059,1.94949 -17.48185,4.00735 -24.84221,4.82223 -7.96872,0.88224 -24.8987,1.00586 -32.44105,0.23687 -15.56989,-1.58744 -32.08058,-6.89176 -49.51204,-15.90652 -21.66729,-11.20535 -41.4857,-28.88079 -57.3664,-51.16337 -7.10942,-9.97539 -15.57785,-26.098 -20.54411,-39.11286 -15.15049,-39.70428 -17.28499,-85.95251 -5.88172,-127.44017 7.08279,-25.76882 16.99994,-45.92814 33.03155,-67.14563 12.20245,-16.14969 28.16384,-30.20886 46.0428,-40.55558 29.93644,-17.32451 58.42431,-22.77229 93.16687,-17.81646 16.86919,2.40629 35.12448,9.42759 53.43238,20.551 10.32732,6.27462 21.26487,15.26454 30.92443,25.41779 17.95076,18.8682 32.02965,43.29826 40.97516,71.10115 14.25548,44.30641 12.65972,95.93914 -4.26429,137.97584 -8.75429,21.74435 -19.39867,38.84981 -34.66072,55.69958 -11.01797,12.16419 -30.21338,27.02497 -42.1607,32.64015 -2.76829,1.30109 -5.07834,2.40663 -5.13344,2.45676 -0.25375,0.23088 6.39884,16.59194 7.92077,19.47994 2.37007,4.49746 6.44407,10.83999 9.4306,14.68187 5.71851,7.35632 13.39033,12.50519 20.82938,13.97943 4.49144,0.89011 14.28691,0.24388 19.11566,-1.26112 10.15575,-3.16525 18.59805,-9.86808 24.7749,-19.67024 2.90276,-4.60645 4.20073,-8.19049 5.27687,-14.57085 1.97499,-11.70957 2.14826,-12.3308 3.73183,-13.37915 2.98723,-1.9776 6.68773,-0.22216 7.68527,3.64574 1.07207,4.15688 -0.24714,21.78448 -2.62139,35.02774 -2.98075,16.62624 -11.40804,36.28928 -19.601,45.7342 -5.99154,6.90715 -13.70801,12.08128 -21.53433,14.4394 -3.5835,1.07976 -5.1874,1.26311 -12.35439,1.41217 -5.79764,0.12059 -9.11687,-0.0251 -11.21046,-0.4917 z m -76.41416,-98.67628 c 9.56019,-2.10229 20.46663,-6.18977 23.45887,-8.79184 2.03353,-1.76837 2.12067,-2.67478 0.775,-8.06092 -4.24251,-16.98091 -9.0861,-27.37532 -15.75072,-33.80131 -3.10603,-2.99482 -9.67199,-6.60261 -14.27829,-7.84548 -9.28133,-2.50427 -17.44874,-1.51256 -24.32849,2.95406 -8.70934,5.65447 -13.3545,15.04037 -13.33875,26.95199 0.0108,8.15135 1.59966,13.27837 6.24811,20.1616 2.86925,4.24867 8.12457,7.77323 13.54953,9.0872 4.13673,1.00195 17.85595,0.62205 23.66474,-0.6553 z m -49.19763,-8.29405 c -3.7712,-7.90033 -5.60138,-16.63491 -5.08711,-24.27834 0.95913,-14.25521 10.99172,-29.12828 23.49443,-34.82995 5.5769,-2.54326 10.18427,-3.33161 17.51563,-2.99703 7.01107,0.31996 10.49994,1.20473 16.24888,4.12067 12.96805,6.57759 24.83063,22.43407 33.39419,44.63735 l 1.45441,3.77096 3.8527,-3.00309 c 6.33827,-4.94053 10.3581,-9.02131 15.40795,-15.64157 11.90281,-15.60436 20.2579,-31.37168 25.45182,-48.03143 8.82743,-28.31444 12.23136,-55.68158 11.18685,-89.94086 -1.56609,-51.36727 -11.65659,-87.44159 -32.75004,-117.08399 -6.93651,-9.74779 -18.82263,-21.79189 -27.56949,-27.93591 -8.37347,-5.88175 -18.97862,-10.95364 -28.01118,-13.39632 -20.72602,-5.60493 -44.42116,-2.49212 -63.35825,8.32333 -2.56297,1.46378 -5.34271,3.40457 -6.17719,4.31286 l -1.51724,1.65146 -0.12455,150.46362 c -0.13787,166.56178 -0.37772,153.13009 2.7797,155.66611 2.27944,1.83082 13.41776,7.50414 14.85264,7.56522 0.36022,0.0154 -0.0329,-1.25458 -1.04415,-3.37309 z m -30.8771,-158.55754 c 0,-81.2568 -0.17068,-140.23245 -0.40586,-140.23245 -0.84373,0 -10.47045,11.10083 -13.32123,15.36107 -8.67513,12.9642 -15.25686,25.82592 -19.82755,38.74607 -5.3608,15.15357 -10.19001,38.86785 -11.68963,57.40301 -2.90131,35.85974 -1.04474,66.52023 5.72831,94.60086 5.8284,24.16417 12.81307,40.173 25.64929,58.78805 3.37458,4.89382 12.60895,15.56585 13.46891,15.56585 0.22439,0 0.39776,-61.12371 0.39776,-140.23246 z m -119.42571,-239.91576 0,-9.89592 183.48549,0 183.48551,0 0,9.89592 0,9.89592 -183.48551,0 -183.48549,0 0,-9.89592 z"
       id="path3913"
       style="fill:#26a0af;fill-opacity:1;stroke:none"
       inkscape:connector-curvature="0" />
  </g>
</svg>
